<?xml version="1.0" encoding="UTF-8"?>
<svg xmlns="http://www.w3.org/2000/svg" xmlns:xlink="http://www.w3.org/1999/xlink" width="375pt" height="374.999991pt" viewBox="0 0 375 374.999991" version="1.2">
<g id="surface1">
<path style=" stroke:none;fill-rule:nonzero;fill:rgb(0%,0%,0%);fill-opacity:1;" d="M 290.679688 272.679688 L 227.960938 175.332031 L 227.960938 85.257812 L 228.449219 85.257812 C 229.039062 85.265625 229.628906 85.242188 230.214844 85.191406 C 230.804688 85.140625 231.386719 85.058594 231.96875 84.949219 C 232.546875 84.839844 233.121094 84.703125 233.6875 84.539062 C 234.253906 84.375 234.808594 84.179688 235.359375 83.960938 C 235.90625 83.738281 236.441406 83.492188 236.964844 83.21875 C 237.484375 82.945312 237.992188 82.648438 238.488281 82.324219 C 238.980469 82.003906 239.457031 81.65625 239.914062 81.285156 C 240.375 80.917969 240.816406 80.523438 241.234375 80.113281 C 241.65625 79.699219 242.054688 79.265625 242.429688 78.8125 C 242.808594 78.359375 243.164062 77.890625 243.492188 77.402344 C 243.824219 76.914062 244.128906 76.414062 244.410156 75.894531 C 244.691406 75.378906 244.945312 74.847656 245.175781 74.304688 C 245.402344 73.761719 245.605469 73.210938 245.777344 72.648438 C 245.953125 72.085938 246.097656 71.515625 246.214844 70.9375 C 246.332031 70.359375 246.421875 69.78125 246.480469 69.195312 C 246.542969 68.609375 246.570312 68.023438 246.574219 67.433594 C 246.5625 66.847656 246.523438 66.265625 246.457031 65.683594 C 246.390625 65.101562 246.296875 64.523438 246.171875 63.953125 C 246.050781 63.378906 245.898438 62.816406 245.71875 62.257812 C 245.542969 61.699219 245.335938 61.152344 245.105469 60.617188 C 244.871094 60.078125 244.613281 59.554688 244.332031 59.039062 C 244.050781 58.527344 243.742188 58.03125 243.410156 57.546875 C 243.078125 57.0625 242.722656 56.597656 242.347656 56.148438 C 241.96875 55.703125 241.574219 55.273438 241.152344 54.863281 C 240.734375 54.453125 240.296875 54.0625 239.839844 53.695312 C 239.382812 53.328125 238.910156 52.984375 238.417969 52.664062 C 237.929688 52.339844 237.425781 52.042969 236.90625 51.773438 C 236.386719 51.5 235.855469 51.253906 235.3125 51.03125 C 234.765625 50.8125 234.214844 50.617188 233.652344 50.449219 C 233.089844 50.28125 232.519531 50.140625 231.945312 50.03125 C 231.367188 49.917969 230.789062 49.832031 230.203125 49.777344 C 229.621094 49.722656 229.035156 49.695312 228.449219 49.695312 L 150.785156 49.695312 C 150.199219 49.695312 149.613281 49.722656 149.03125 49.777344 C 148.445312 49.835938 147.867188 49.917969 147.289062 50.03125 C 146.714844 50.144531 146.144531 50.285156 145.582031 50.453125 C 145.019531 50.621094 144.46875 50.8125 143.925781 51.035156 C 143.382812 51.257812 142.851562 51.503906 142.332031 51.777344 C 141.8125 52.046875 141.308594 52.34375 140.816406 52.667969 C 140.328125 52.988281 139.855469 53.332031 139.398438 53.699219 C 138.941406 54.066406 138.503906 54.457031 138.085938 54.867188 C 137.664062 55.277344 137.269531 55.703125 136.890625 56.152344 C 136.515625 56.601562 136.160156 57.066406 135.828125 57.550781 C 135.496094 58.03125 135.1875 58.53125 134.90625 59.042969 C 134.621094 59.554688 134.363281 60.082031 134.132812 60.617188 C 133.902344 61.15625 133.695312 61.703125 133.515625 62.261719 C 133.339844 62.816406 133.1875 63.382812 133.0625 63.953125 C 132.941406 64.527344 132.84375 65.101562 132.777344 65.683594 C 132.710938 66.265625 132.671875 66.847656 132.660156 67.433594 C 132.664062 68.019531 132.695312 68.609375 132.753906 69.195312 C 132.816406 69.777344 132.90625 70.359375 133.023438 70.9375 C 133.140625 71.511719 133.285156 72.082031 133.460938 72.644531 C 133.636719 73.207031 133.835938 73.757812 134.066406 74.300781 C 134.292969 74.84375 134.550781 75.371094 134.832031 75.890625 C 135.113281 76.40625 135.417969 76.910156 135.75 77.398438 C 136.078125 77.882812 136.433594 78.355469 136.8125 78.804688 C 137.1875 79.257812 137.585938 79.691406 138.007812 80.105469 C 138.425781 80.515625 138.867188 80.910156 139.324219 81.277344 C 139.785156 81.648438 140.261719 81.996094 140.753906 82.316406 C 141.246094 82.640625 141.753906 82.941406 142.277344 83.210938 C 142.796875 83.484375 143.332031 83.734375 143.878906 83.953125 C 144.425781 84.175781 144.984375 84.367188 145.550781 84.53125 C 146.117188 84.699219 146.6875 84.835938 147.269531 84.945312 C 147.847656 85.054688 148.433594 85.136719 149.019531 85.1875 C 149.605469 85.242188 150.195312 85.265625 150.785156 85.257812 L 151.273438 85.257812 L 151.273438 175.332031 L 88.542969 272.679688 C 87.78125 273.835938 87.101562 275.035156 86.503906 276.285156 C 85.90625 277.53125 85.398438 278.8125 84.972656 280.132812 C 84.550781 281.449219 84.21875 282.785156 83.976562 284.148438 C 83.734375 285.511719 83.585938 286.882812 83.53125 288.261719 C 83.476562 289.644531 83.515625 291.023438 83.648438 292.402344 C 83.78125 293.777344 84.007812 295.136719 84.324219 296.484375 C 84.640625 297.832031 85.050781 299.148438 85.546875 300.441406 C 86.042969 301.730469 86.625 302.980469 87.292969 304.195312 C 87.960938 305.414062 88.707031 306.585938 89.535156 307.703125 C 90.359375 308.824219 91.257812 309.882812 92.222656 310.886719 C 93.191406 311.886719 94.222656 312.816406 95.316406 313.679688 C 96.40625 314.542969 97.554688 315.332031 98.75 316.042969 C 99.949219 316.753906 101.191406 317.382812 102.472656 317.925781 C 103.753906 318.472656 105.066406 318.929688 106.410156 319.300781 C 107.753906 319.671875 109.117188 319.953125 110.496094 320.140625 C 111.878906 320.332031 113.265625 320.429688 114.660156 320.433594 L 264.625 320.433594 C 266.015625 320.433594 267.402344 320.339844 268.78125 320.152344 C 270.160156 319.964844 271.519531 319.6875 272.863281 319.320312 C 274.207031 318.953125 275.519531 318.5 276.800781 317.957031 C 278.082031 317.414062 279.320312 316.789062 280.515625 316.078125 C 281.714844 315.371094 282.859375 314.585938 283.949219 313.726562 C 285.042969 312.863281 286.074219 311.933594 287.039062 310.9375 C 288.007812 309.9375 288.902344 308.878906 289.726562 307.761719 C 290.554688 306.644531 291.300781 305.476562 291.96875 304.257812 C 292.636719 303.042969 293.21875 301.789062 293.71875 300.492188 C 294.214844 299.199219 294.621094 297.878906 294.941406 296.527344 C 295.257812 295.179688 295.484375 293.816406 295.613281 292.4375 C 295.746094 291.054688 295.785156 289.671875 295.726562 288.289062 C 295.671875 286.90625 295.519531 285.53125 295.277344 284.164062 C 295.03125 282.800781 294.699219 281.460938 294.269531 280.140625 C 293.84375 278.820312 293.328125 277.539062 292.726562 276.289062 C 292.125 275.039062 291.445312 273.835938 290.679688 272.679688 Z M 192.308594 80.3125 L 201.003906 80.3125 C 201.378906 80.3125 201.75 80.347656 202.117188 80.421875 C 202.484375 80.492188 202.839844 80.601562 203.1875 80.742188 C 203.53125 80.886719 203.859375 81.058594 204.171875 81.269531 C 204.484375 81.476562 204.773438 81.710938 205.035156 81.972656 C 205.300781 82.238281 205.539062 82.527344 205.746094 82.835938 C 205.953125 83.144531 206.128906 83.472656 206.273438 83.820312 C 206.417969 84.164062 206.527344 84.519531 206.597656 84.886719 C 206.671875 85.253906 206.707031 85.621094 206.707031 85.996094 C 206.707031 86.367188 206.671875 86.738281 206.597656 87.105469 C 206.527344 87.472656 206.417969 87.828125 206.273438 88.171875 C 206.128906 88.515625 205.953125 88.84375 205.746094 89.15625 C 205.539062 89.464844 205.300781 89.753906 205.035156 90.015625 C 204.773438 90.28125 204.484375 90.515625 204.171875 90.722656 C 203.859375 90.929688 203.53125 91.105469 203.1875 91.246094 C 202.839844 91.390625 202.484375 91.496094 202.117188 91.570312 C 201.75 91.644531 201.378906 91.679688 201.003906 91.679688 L 192.308594 91.679688 C 191.953125 91.664062 191.601562 91.613281 191.257812 91.527344 C 190.910156 91.445312 190.574219 91.324219 190.253906 91.171875 C 189.929688 91.019531 189.625 90.839844 189.339844 90.625 C 189.054688 90.414062 188.792969 90.175781 188.554688 89.910156 C 188.316406 89.644531 188.105469 89.359375 187.925781 89.054688 C 187.746094 88.746094 187.597656 88.425781 187.480469 88.089844 C 187.363281 87.753906 187.28125 87.410156 187.234375 87.054688 C 187.1875 86.703125 187.175781 86.351562 187.199219 85.996094 C 187.179688 85.640625 187.195312 85.292969 187.242188 84.941406 C 187.292969 84.589844 187.378906 84.25 187.496094 83.917969 C 187.613281 83.582031 187.761719 83.265625 187.945312 82.960938 C 188.125 82.65625 188.335938 82.375 188.574219 82.113281 C 188.8125 81.851562 189.070312 81.613281 189.355469 81.402344 C 189.640625 81.195312 189.945312 81.011719 190.265625 80.863281 C 190.585938 80.710938 190.917969 80.59375 191.261719 80.511719 C 191.605469 80.425781 191.957031 80.375 192.308594 80.363281 Z M 206.753906 104.769531 C 206.722656 105.5 206.546875 106.191406 206.21875 106.84375 C 205.890625 107.5 205.441406 108.054688 204.875 108.515625 C 203.867188 109.632812 202.613281 110.253906 201.117188 110.390625 C 200.34375 110.417969 199.609375 110.265625 198.914062 109.933594 C 198.214844 109.605469 197.636719 109.132812 197.171875 108.515625 C 196.621094 108.046875 196.191406 107.488281 195.886719 106.832031 C 195.582031 106.179688 195.425781 105.492188 195.417969 104.769531 C 195.417969 103.976562 195.570312 103.214844 195.871094 102.484375 C 196.175781 101.753906 196.609375 101.109375 197.171875 100.546875 C 197.425781 100.304688 197.703125 100.089844 198 99.902344 C 198.296875 99.714844 198.609375 99.554688 198.933594 99.425781 C 199.261719 99.296875 199.597656 99.195312 199.945312 99.132812 C 200.289062 99.066406 200.640625 99.03125 200.992188 99.03125 C 201.34375 99.03125 201.691406 99.066406 202.039062 99.132812 C 202.382812 99.195312 202.71875 99.296875 203.046875 99.425781 C 203.375 99.554688 203.6875 99.714844 203.984375 99.902344 C 204.277344 100.089844 204.554688 100.304688 204.8125 100.546875 C 205.441406 101.078125 205.925781 101.71875 206.265625 102.464844 C 206.605469 103.214844 206.769531 104 206.753906 104.820312 Z M 192.308594 120.257812 L 201.003906 120.257812 C 201.367188 120.257812 201.730469 120.292969 202.089844 120.367188 C 202.445312 120.4375 202.792969 120.542969 203.132812 120.679688 C 203.46875 120.820312 203.789062 120.992188 204.09375 121.195312 C 204.398438 121.394531 204.679688 121.625 204.9375 121.882812 C 205.195312 122.140625 205.425781 122.421875 205.628906 122.722656 C 205.832031 123.027344 206 123.347656 206.140625 123.683594 C 206.28125 124.019531 206.386719 124.367188 206.457031 124.722656 C 206.53125 125.082031 206.566406 125.441406 206.566406 125.804688 C 206.566406 126.167969 206.53125 126.53125 206.457031 126.886719 C 206.386719 127.246094 206.28125 127.589844 206.140625 127.925781 C 206 128.265625 205.832031 128.582031 205.628906 128.886719 C 205.425781 129.1875 205.195312 129.46875 204.9375 129.726562 C 204.679688 129.984375 204.398438 130.214844 204.09375 130.417969 C 203.789062 130.617188 203.46875 130.789062 203.132812 130.929688 C 202.792969 131.070312 202.445312 131.175781 202.089844 131.246094 C 201.730469 131.316406 201.367188 131.351562 201.003906 131.351562 L 192.308594 131.351562 C 191.964844 131.339844 191.625 131.296875 191.285156 131.21875 C 190.949219 131.140625 190.625 131.03125 190.308594 130.886719 C 189.992188 130.746094 189.695312 130.574219 189.414062 130.375 C 189.132812 130.175781 188.875 129.949219 188.636719 129.699219 C 188.398438 129.445312 188.1875 129.175781 188.003906 128.882812 C 187.820312 128.589844 187.667969 128.285156 187.546875 127.960938 C 187.421875 127.640625 187.332031 127.308594 187.273438 126.96875 C 187.214844 126.628906 187.191406 126.289062 187.199219 125.941406 C 187.175781 125.585938 187.1875 125.234375 187.234375 124.882812 C 187.28125 124.527344 187.363281 124.183594 187.480469 123.847656 C 187.597656 123.511719 187.746094 123.191406 187.925781 122.882812 C 188.105469 122.578125 188.316406 122.292969 188.554688 122.027344 C 188.792969 121.761719 189.054688 121.523438 189.339844 121.3125 C 189.625 121.097656 189.929688 120.917969 190.253906 120.765625 C 190.574219 120.613281 190.910156 120.496094 191.257812 120.410156 C 191.601562 120.324219 191.953125 120.273438 192.308594 120.257812 Z M 206.753906 144.417969 C 206.730469 145.1875 206.570312 145.925781 206.265625 146.632812 C 205.964844 147.339844 205.542969 147.96875 205 148.515625 C 203.847656 149.449219 202.53125 149.976562 201.054688 150.101562 C 200.339844 150.140625 199.648438 150.03125 198.980469 149.773438 C 198.308594 149.515625 197.722656 149.132812 197.21875 148.628906 C 196.640625 148.078125 196.1875 147.4375 195.863281 146.710938 C 195.539062 145.980469 195.371094 145.214844 195.355469 144.417969 C 195.363281 143.695312 195.519531 143.007812 195.824219 142.355469 C 196.128906 141.699219 196.558594 141.140625 197.109375 140.671875 C 197.359375 140.414062 197.636719 140.1875 197.933594 139.988281 C 198.230469 139.785156 198.546875 139.613281 198.875 139.472656 C 199.207031 139.335938 199.546875 139.226562 199.898438 139.152344 C 200.25 139.078125 200.605469 139.039062 200.964844 139.03125 C 201.324219 139.027344 201.679688 139.054688 202.035156 139.117188 C 202.390625 139.179688 202.734375 139.277344 203.066406 139.40625 C 203.402344 139.535156 203.722656 139.699219 204.027344 139.890625 C 204.332031 140.082031 204.613281 140.300781 204.875 140.546875 C 205.445312 141.03125 205.894531 141.609375 206.222656 142.285156 C 206.550781 142.957031 206.726562 143.667969 206.753906 144.417969 Z M 192.308594 159.882812 L 201.003906 159.882812 C 201.378906 159.882812 201.75 159.917969 202.117188 159.992188 C 202.480469 160.0625 202.839844 160.171875 203.183594 160.3125 C 203.53125 160.457031 203.859375 160.632812 204.167969 160.839844 C 204.480469 161.046875 204.769531 161.28125 205.035156 161.546875 C 205.296875 161.808594 205.535156 162.097656 205.742188 162.40625 C 205.949219 162.71875 206.125 163.046875 206.269531 163.390625 C 206.414062 163.734375 206.519531 164.089844 206.59375 164.457031 C 206.667969 164.824219 206.703125 165.191406 206.703125 165.566406 C 206.703125 165.9375 206.667969 166.308594 206.59375 166.675781 C 206.519531 167.039062 206.414062 167.394531 206.269531 167.742188 C 206.125 168.085938 205.949219 168.414062 205.742188 168.722656 C 205.535156 169.035156 205.296875 169.320312 205.035156 169.585938 C 204.769531 169.847656 204.480469 170.082031 204.167969 170.292969 C 203.859375 170.5 203.53125 170.671875 203.183594 170.816406 C 202.839844 170.960938 202.480469 171.066406 202.117188 171.140625 C 201.75 171.210938 201.378906 171.25 201.003906 171.25 L 192.308594 171.25 C 191.964844 171.210938 191.625 171.136719 191.289062 171.035156 C 190.957031 170.933594 190.632812 170.804688 190.324219 170.644531 C 190.015625 170.484375 189.722656 170.296875 189.445312 170.082031 C 189.171875 169.867188 188.914062 169.632812 188.683594 169.371094 C 188.453125 169.113281 188.246094 168.835938 188.0625 168.535156 C 187.882812 168.238281 187.730469 167.929688 187.605469 167.601562 C 187.480469 167.277344 187.386719 166.945312 187.324219 166.601562 C 187.261719 166.257812 187.230469 165.914062 187.230469 165.566406 C 187.230469 165.21875 187.261719 164.871094 187.324219 164.53125 C 187.386719 164.1875 187.480469 163.851562 187.605469 163.527344 C 187.730469 163.203125 187.882812 162.890625 188.0625 162.59375 C 188.246094 162.296875 188.453125 162.019531 188.683594 161.757812 C 188.914062 161.5 189.171875 161.261719 189.445312 161.046875 C 189.722656 160.835938 190.015625 160.648438 190.324219 160.488281 C 190.632812 160.328125 190.957031 160.195312 191.289062 160.09375 C 191.625 159.992188 191.964844 159.921875 192.308594 159.882812 Z M 282.046875 298.785156 C 281.632812 299.570312 281.164062 300.324219 280.644531 301.042969 C 280.121094 301.765625 279.554688 302.445312 278.9375 303.085938 C 278.324219 303.726562 277.667969 304.324219 276.96875 304.875 C 276.269531 305.425781 275.535156 305.925781 274.769531 306.375 C 274 306.824219 273.203125 307.214844 272.382812 307.554688 C 271.558594 307.894531 270.714844 308.175781 269.855469 308.398438 C 268.992188 308.621094 268.121094 308.78125 267.234375 308.882812 C 266.351562 308.984375 265.464844 309.023438 264.574219 309.003906 L 114.609375 309.003906 C 113.71875 309.027344 112.828125 308.988281 111.9375 308.890625 C 111.050781 308.789062 110.175781 308.628906 109.308594 308.40625 C 108.445312 308.183594 107.597656 307.902344 106.769531 307.5625 C 105.945312 307.226562 105.148438 306.832031 104.375 306.378906 C 103.605469 305.929688 102.867188 305.429688 102.167969 304.875 C 101.464844 304.324219 100.808594 303.722656 100.191406 303.078125 C 99.574219 302.4375 99.003906 301.753906 98.480469 301.027344 C 97.960938 300.304688 97.492188 299.550781 97.074219 298.761719 C 96.273438 297.199219 95.683594 295.566406 95.308594 293.851562 C 94.929688 292.140625 94.777344 290.410156 94.851562 288.660156 C 94.921875 286.910156 95.21875 285.195312 95.734375 283.519531 C 96.25 281.84375 96.972656 280.261719 97.902344 278.773438 L 147.53125 201.851562 C 149.042969 203.191406 150.664062 204.382812 152.386719 205.4375 C 154.113281 206.488281 155.917969 207.378906 157.800781 208.109375 C 159.6875 208.84375 161.621094 209.40625 163.605469 209.792969 C 165.589844 210.183594 167.589844 210.398438 169.613281 210.433594 C 173.21875 210.363281 176.722656 209.742188 180.128906 208.570312 C 183.539062 207.398438 186.683594 205.734375 189.566406 203.578125 C 190.320312 204.160156 191.097656 204.710938 191.898438 205.222656 C 192.699219 205.738281 193.519531 206.21875 194.363281 206.660156 C 195.207031 207.105469 196.070312 207.511719 196.949219 207.878906 C 197.828125 208.246094 198.71875 208.574219 199.628906 208.863281 C 200.535156 209.15625 201.453125 209.402344 202.382812 209.613281 C 203.3125 209.820312 204.25 209.992188 205.195312 210.117188 C 206.140625 210.246094 207.089844 210.328125 208.042969 210.375 C 208.992188 210.417969 209.945312 210.421875 210.898438 210.382812 C 211.851562 210.339844 212.800781 210.261719 213.746094 210.136719 C 214.691406 210.015625 215.628906 209.851562 216.558594 209.648438 C 217.488281 209.441406 218.410156 209.199219 219.320312 208.914062 C 220.230469 208.628906 221.125 208.304688 222.003906 207.941406 C 222.886719 207.578125 223.75 207.175781 224.59375 206.738281 C 225.4375 206.296875 226.265625 205.820312 227.066406 205.3125 C 227.871094 204.800781 228.652344 204.253906 229.40625 203.675781 C 230.160156 203.09375 230.890625 202.484375 231.59375 201.839844 L 281.207031 278.773438 C 282.140625 280.261719 282.867188 281.847656 283.386719 283.523438 C 283.90625 285.199219 284.203125 286.914062 284.277344 288.667969 C 284.351562 290.421875 284.199219 292.15625 283.820312 293.871094 C 283.441406 295.585938 282.851562 297.222656 282.046875 298.785156 Z M 282.046875 298.785156 "/>
<path style=" stroke:none;fill-rule:nonzero;fill:rgb(0%,0%,0%);fill-opacity:1;" d="M 143.359375 249.207031 C 142.335938 249.207031 141.328125 249.304688 140.324219 249.503906 C 139.324219 249.699219 138.351562 249.996094 137.40625 250.382812 C 136.464844 250.773438 135.566406 251.25 134.71875 251.8125 C 133.871094 252.378906 133.082031 253.019531 132.359375 253.742188 C 131.640625 254.460938 130.992188 255.242188 130.425781 256.089844 C 129.859375 256.933594 129.378906 257.828125 128.988281 258.769531 C 128.597656 259.707031 128.300781 260.679688 128.101562 261.675781 C 127.902344 262.675781 127.800781 263.683594 127.800781 264.699219 C 127.800781 265.71875 127.898438 266.726562 128.097656 267.726562 C 128.296875 268.722656 128.589844 269.695312 128.980469 270.636719 C 129.371094 271.574219 129.851562 272.46875 130.417969 273.316406 C 130.984375 274.164062 131.628906 274.945312 132.347656 275.667969 C 133.070312 276.386719 133.855469 277.03125 134.703125 277.59375 C 135.554688 278.160156 136.449219 278.640625 137.390625 279.027344 C 138.335938 279.417969 139.308594 279.714844 140.308594 279.914062 C 141.308594 280.109375 142.320312 280.210938 143.339844 280.210938 C 144.363281 280.210938 145.375 280.113281 146.375 279.914062 C 147.375 279.714844 148.347656 279.421875 149.292969 279.03125 C 150.234375 278.644531 151.132812 278.164062 151.980469 277.601562 C 152.828125 277.035156 153.613281 276.390625 154.335938 275.671875 C 155.058594 274.953125 155.703125 274.167969 156.269531 273.324219 C 156.835938 272.476562 157.316406 271.582031 157.707031 270.644531 C 158.097656 269.703125 158.394531 268.734375 158.59375 267.734375 C 158.789062 266.734375 158.890625 265.726562 158.890625 264.710938 C 158.871094 263.699219 158.757812 262.695312 158.546875 261.707031 C 158.335938 260.714844 158.03125 259.753906 157.632812 258.824219 C 157.238281 257.890625 156.753906 257.007812 156.1875 256.167969 C 155.621094 255.328125 154.976562 254.550781 154.261719 253.832031 C 153.542969 253.117188 152.761719 252.476562 151.921875 251.910156 C 151.082031 251.34375 150.195312 250.863281 149.257812 250.464844 C 148.324219 250.070312 147.363281 249.765625 146.371094 249.554688 C 145.375 249.34375 144.375 249.226562 143.359375 249.207031 Z M 143.359375 249.207031 "/>
<path style=" stroke:none;fill-rule:nonzero;fill:rgb(0%,0%,0%);fill-opacity:1;" d="M 186.609375 248.820312 C 186.582031 248.289062 186.503906 247.765625 186.378906 247.25 C 186.25 246.730469 186.070312 246.230469 185.847656 245.75 C 185.621094 245.265625 185.351562 244.8125 185.039062 244.378906 C 184.726562 243.949219 184.375 243.550781 183.984375 243.1875 C 183.59375 242.824219 183.171875 242.503906 182.71875 242.222656 C 182.265625 241.9375 181.792969 241.703125 181.292969 241.511719 C 180.792969 241.320312 180.28125 241.179688 179.757812 241.085938 C 179.230469 240.996094 178.703125 240.953125 178.167969 240.964844 C 177.648438 240.957031 177.136719 241.003906 176.625 241.101562 C 176.117188 241.199219 175.621094 241.34375 175.140625 241.539062 C 174.660156 241.738281 174.203125 241.976562 173.773438 242.265625 C 173.339844 242.550781 172.941406 242.875 172.574219 243.242188 C 172.207031 243.609375 171.882812 244.007812 171.59375 244.4375 C 171.304688 244.867188 171.066406 245.324219 170.867188 245.800781 C 170.671875 246.28125 170.527344 246.773438 170.429688 247.28125 C 170.332031 247.789062 170.285156 248.304688 170.289062 248.820312 C 170.277344 249.351562 170.320312 249.882812 170.410156 250.40625 C 170.503906 250.929688 170.644531 251.441406 170.835938 251.9375 C 171.027344 252.433594 171.265625 252.910156 171.546875 253.359375 C 171.828125 253.8125 172.152344 254.234375 172.519531 254.621094 C 172.882812 255.011719 173.28125 255.363281 173.710938 255.675781 C 174.144531 255.988281 174.601562 256.257812 175.085938 256.480469 C 175.570312 256.703125 176.074219 256.878906 176.589844 257.007812 C 177.109375 257.136719 177.636719 257.214844 178.167969 257.238281 C 178.714844 257.21875 179.257812 257.148438 179.792969 257.027344 C 180.328125 256.90625 180.847656 256.734375 181.351562 256.515625 C 181.855469 256.296875 182.332031 256.035156 182.785156 255.726562 C 183.238281 255.417969 183.660156 255.070312 184.046875 254.683594 C 184.4375 254.296875 184.785156 253.878906 185.09375 253.425781 C 185.402344 252.972656 185.667969 252.496094 185.886719 251.996094 C 186.105469 251.492188 186.277344 250.976562 186.398438 250.441406 C 186.519531 249.90625 186.589844 249.367188 186.609375 248.820312 Z M 186.609375 248.820312 "/>
<path style=" stroke:none;fill-rule:nonzero;fill:rgb(0%,0%,0%);fill-opacity:1;" d="M 248.964844 262.761719 C 248.96875 262.207031 248.949219 261.652344 248.898438 261.101562 C 248.847656 260.550781 248.769531 260.003906 248.664062 259.457031 C 248.558594 258.914062 248.425781 258.375 248.269531 257.84375 C 248.109375 257.3125 247.925781 256.792969 247.714844 256.277344 C 247.503906 255.765625 247.269531 255.265625 247.007812 254.777344 C 246.75 254.285156 246.464844 253.808594 246.15625 253.347656 C 245.851562 252.886719 245.519531 252.441406 245.167969 252.015625 C 244.816406 251.585938 244.445312 251.175781 244.050781 250.78125 C 243.660156 250.390625 243.246094 250.019531 242.816406 249.667969 C 242.386719 249.316406 241.941406 248.988281 241.480469 248.679688 C 241.015625 248.371094 240.539062 248.089844 240.050781 247.828125 C 239.558594 247.570312 239.054688 247.335938 238.542969 247.125 C 238.027344 246.914062 237.503906 246.730469 236.972656 246.570312 C 236.441406 246.414062 235.902344 246.28125 235.355469 246.175781 C 234.808594 246.070312 234.261719 245.992188 233.707031 245.941406 C 233.152344 245.890625 232.597656 245.867188 232.042969 245.871094 C 231.480469 245.871094 230.917969 245.898438 230.355469 245.953125 C 229.796875 246.011719 229.238281 246.09375 228.683594 246.203125 C 228.132812 246.3125 227.585938 246.449219 227.046875 246.613281 C 226.507812 246.773438 225.976562 246.964844 225.457031 247.179688 C 224.9375 247.394531 224.425781 247.632812 223.929688 247.898438 C 223.433594 248.164062 222.949219 248.453125 222.480469 248.765625 C 222.011719 249.078125 221.558594 249.410156 221.125 249.769531 C 220.6875 250.125 220.273438 250.5 219.875 250.898438 C 219.476562 251.296875 219.097656 251.710938 218.738281 252.148438 C 218.382812 252.582031 218.046875 253.03125 217.734375 253.5 C 217.417969 253.96875 217.128906 254.449219 216.863281 254.945312 C 216.597656 255.441406 216.359375 255.949219 216.140625 256.46875 C 215.925781 256.988281 215.738281 257.515625 215.574219 258.054688 C 215.410156 258.589844 215.273438 259.136719 215.164062 259.6875 C 215.054688 260.238281 214.96875 260.792969 214.914062 261.351562 C 214.859375 261.914062 214.832031 262.472656 214.832031 263.035156 C 214.832031 263.597656 214.859375 264.160156 214.914062 264.71875 C 214.96875 265.277344 215.054688 265.832031 215.164062 266.382812 C 215.273438 266.933594 215.410156 267.480469 215.574219 268.019531 C 215.738281 268.554688 215.925781 269.085938 216.140625 269.605469 C 216.359375 270.121094 216.597656 270.628906 216.863281 271.125 C 217.128906 271.621094 217.417969 272.101562 217.734375 272.570312 C 218.046875 273.039062 218.382812 273.488281 218.738281 273.921875 C 219.097656 274.359375 219.476562 274.773438 219.875 275.171875 C 220.273438 275.570312 220.6875 275.945312 221.125 276.304688 C 221.558594 276.660156 222.011719 276.992188 222.480469 277.304688 C 222.949219 277.617188 223.433594 277.90625 223.929688 278.171875 C 224.425781 278.4375 224.9375 278.675781 225.457031 278.890625 C 225.976562 279.105469 226.507812 279.296875 227.046875 279.460938 C 227.585938 279.621094 228.132812 279.757812 228.683594 279.867188 C 229.238281 279.980469 229.796875 280.0625 230.355469 280.117188 C 230.917969 280.171875 231.480469 280.199219 232.042969 280.199219 C 232.609375 280.199219 233.171875 280.167969 233.734375 280.109375 C 234.300781 280.054688 234.859375 279.96875 235.414062 279.855469 C 235.964844 279.742188 236.515625 279.601562 237.054688 279.433594 C 237.59375 279.265625 238.125 279.074219 238.644531 278.851562 C 239.167969 278.632812 239.675781 278.386719 240.171875 278.113281 C 240.667969 277.84375 241.148438 277.546875 241.613281 277.226562 C 242.082031 276.910156 242.53125 276.566406 242.964844 276.203125 C 243.394531 275.835938 243.808594 275.453125 244.203125 275.046875 C 244.59375 274.640625 244.96875 274.21875 245.316406 273.773438 C 245.667969 273.332031 245.996094 272.875 246.300781 272.398438 C 246.605469 271.921875 246.886719 271.433594 247.144531 270.929688 C 247.398438 270.425781 247.628906 269.910156 247.832031 269.386719 C 248.035156 268.859375 248.214844 268.324219 248.363281 267.78125 C 248.515625 267.234375 248.636719 266.6875 248.734375 266.128906 C 248.828125 265.574219 248.894531 265.015625 248.933594 264.449219 C 248.972656 263.886719 248.984375 263.324219 248.964844 262.761719 Z M 248.964844 262.761719 "/>
<path style=" stroke:none;fill-rule:nonzero;fill:rgb(0%,0%,0%);fill-opacity:1;" d="M 217.925781 232.183594 C 217.929688 231.738281 217.890625 231.300781 217.804688 230.867188 C 217.71875 230.433594 217.59375 230.011719 217.425781 229.601562 C 217.257812 229.191406 217.050781 228.804688 216.804688 228.433594 C 216.558594 228.066406 216.277344 227.726562 215.960938 227.414062 C 215.648438 227.101562 215.304688 226.824219 214.9375 226.578125 C 214.566406 226.335938 214.175781 226.128906 213.765625 225.964844 C 213.351562 225.796875 212.929688 225.671875 212.492188 225.589844 C 212.058594 225.507812 211.617188 225.46875 211.175781 225.472656 C 210.714844 225.464844 210.261719 225.5 209.808594 225.574219 C 209.359375 225.652344 208.917969 225.773438 208.492188 225.933594 C 208.0625 226.097656 207.652344 226.296875 207.261719 226.539062 C 206.875 226.777344 206.511719 227.054688 206.175781 227.363281 C 205.835938 227.671875 205.535156 228.011719 205.261719 228.378906 C 204.992188 228.746094 204.757812 229.136719 204.5625 229.550781 C 204.363281 229.964844 204.210938 230.390625 204.097656 230.832031 C 203.980469 231.277344 203.910156 231.726562 203.882812 232.183594 C 203.882812 232.660156 203.925781 233.132812 204.019531 233.601562 C 204.109375 234.070312 204.246094 234.527344 204.429688 234.96875 C 204.613281 235.410156 204.835938 235.832031 205.101562 236.230469 C 205.367188 236.628906 205.667969 236.996094 206.007812 237.332031 C 206.347656 237.671875 206.714844 237.972656 207.117188 238.238281 C 207.515625 238.503906 207.9375 238.726562 208.378906 238.910156 C 208.824219 239.089844 209.277344 239.226562 209.75 239.320312 C 210.21875 239.410156 210.695312 239.453125 211.175781 239.453125 C 211.640625 239.449219 212.101562 239.398438 212.554688 239.300781 C 213.007812 239.199219 213.449219 239.058594 213.875 238.871094 C 214.300781 238.683594 214.703125 238.453125 215.082031 238.183594 C 215.460938 237.914062 215.808594 237.609375 216.125 237.269531 C 216.441406 236.929688 216.71875 236.5625 216.960938 236.164062 C 217.199219 235.765625 217.398438 235.347656 217.550781 234.910156 C 217.707031 234.472656 217.816406 234.027344 217.878906 233.566406 C 217.941406 233.105469 217.957031 232.644531 217.925781 232.183594 Z M 217.925781 232.183594 "/>
<path style=" stroke:none;fill-rule:nonzero;fill:rgb(0%,0%,0%);fill-opacity:1;" d="M 191.546875 276.078125 C 191.058594 276.054688 190.570312 276.078125 190.085938 276.152344 C 189.601562 276.226562 189.128906 276.34375 188.671875 276.511719 C 188.210938 276.679688 187.773438 276.890625 187.355469 277.144531 C 186.9375 277.402344 186.550781 277.695312 186.191406 278.027344 C 185.832031 278.359375 185.507812 278.722656 185.222656 279.121094 C 184.9375 279.515625 184.695312 279.9375 184.492188 280.382812 C 184.289062 280.828125 184.136719 281.289062 184.027344 281.761719 C 183.917969 282.238281 183.855469 282.722656 183.84375 283.210938 C 183.832031 283.714844 183.871094 284.21875 183.960938 284.71875 C 184.050781 285.21875 184.191406 285.703125 184.378906 286.175781 C 184.570312 286.644531 184.804688 287.09375 185.085938 287.515625 C 185.367188 287.941406 185.6875 288.332031 186.046875 288.691406 C 186.40625 289.050781 186.800781 289.367188 187.222656 289.648438 C 187.648438 289.925781 188.097656 290.160156 188.570312 290.347656 C 189.042969 290.535156 189.53125 290.675781 190.03125 290.765625 C 190.53125 290.851562 191.039062 290.890625 191.546875 290.878906 C 192.039062 290.875 192.523438 290.820312 193.003906 290.71875 C 193.484375 290.613281 193.949219 290.464844 194.398438 290.265625 C 194.847656 290.070312 195.273438 289.828125 195.671875 289.542969 C 196.074219 289.261719 196.441406 288.9375 196.773438 288.578125 C 197.109375 288.21875 197.402344 287.832031 197.65625 287.410156 C 197.914062 286.992188 198.121094 286.550781 198.285156 286.089844 C 198.449219 285.628906 198.566406 285.15625 198.632812 284.671875 C 198.699219 284.183594 198.71875 283.699219 198.6875 283.210938 C 198.691406 282.738281 198.652344 282.273438 198.5625 281.8125 C 198.476562 281.351562 198.34375 280.902344 198.167969 280.46875 C 197.988281 280.035156 197.769531 279.621094 197.511719 279.230469 C 197.25 278.839844 196.953125 278.476562 196.621094 278.144531 C 196.289062 277.8125 195.925781 277.515625 195.535156 277.253906 C 195.144531 276.996094 194.730469 276.777344 194.292969 276.597656 C 193.859375 276.421875 193.410156 276.289062 192.945312 276.199219 C 192.484375 276.113281 192.015625 276.070312 191.546875 276.078125 Z M 191.546875 276.078125 "/>
<path style=" stroke:none;fill-rule:nonzero;fill:rgb(0%,0%,0%);fill-opacity:1;" d="M 247.964844 286.65625 C 247.316406 286.65625 246.675781 286.71875 246.042969 286.84375 C 245.40625 286.96875 244.792969 287.152344 244.191406 287.398438 C 243.59375 287.644531 243.027344 287.949219 242.488281 288.304688 C 241.949219 288.664062 241.453125 289.070312 240.996094 289.527344 C 240.539062 289.980469 240.128906 290.476562 239.769531 291.015625 C 239.410156 291.550781 239.105469 292.117188 238.859375 292.710938 C 238.609375 293.308594 238.421875 293.921875 238.296875 294.554688 C 238.167969 295.1875 238.105469 295.824219 238.105469 296.472656 C 238.105469 297.117188 238.167969 297.753906 238.292969 298.386719 C 238.421875 299.019531 238.605469 299.632812 238.855469 300.230469 C 239.101562 300.828125 239.40625 301.390625 239.765625 301.929688 C 240.125 302.464844 240.53125 302.960938 240.988281 303.417969 C 241.445312 303.875 241.945312 304.28125 242.480469 304.640625 C 243.019531 304.996094 243.589844 305.300781 244.1875 305.546875 C 244.78125 305.792969 245.398438 305.980469 246.035156 306.105469 C 246.667969 306.230469 247.308594 306.292969 247.957031 306.292969 C 248.601562 306.292969 249.242188 306.230469 249.878906 306.101562 C 250.511719 305.976562 251.128906 305.789062 251.726562 305.542969 C 252.320312 305.296875 252.890625 304.992188 253.425781 304.632812 C 253.964844 304.277344 254.460938 303.867188 254.917969 303.410156 C 255.375 302.953125 255.785156 302.457031 256.144531 301.921875 C 256.5 301.386719 256.804688 300.820312 257.050781 300.222656 C 257.296875 299.625 257.484375 299.011719 257.609375 298.378906 C 257.734375 297.746094 257.796875 297.109375 257.796875 296.460938 C 257.800781 295.816406 257.738281 295.179688 257.617188 294.546875 C 257.492188 293.914062 257.308594 293.296875 257.0625 292.703125 C 256.816406 292.105469 256.515625 291.539062 256.15625 291.003906 C 255.796875 290.464844 255.390625 289.96875 254.933594 289.515625 C 254.472656 289.058594 253.976562 288.652344 253.4375 288.292969 C 252.902344 287.9375 252.332031 287.636719 251.734375 287.390625 C 251.136719 287.144531 250.519531 286.960938 249.886719 286.835938 C 249.25 286.714844 248.609375 286.652344 247.964844 286.65625 Z M 247.964844 286.65625 "/>
</g>
</svg>
