<?xml version="1.0" encoding="UTF-8"?>
<svg xmlns="http://www.w3.org/2000/svg" xmlns:xlink="http://www.w3.org/1999/xlink" width="375pt" height="374.999991pt" viewBox="0 0 375 374.999991" version="1.2">
<defs>
<clipPath id="clip1">
  <path d="M 54.070312 47.699219 L 326.851562 47.699219 L 326.851562 320.476562 L 54.070312 320.476562 Z M 54.070312 47.699219 "/>
</clipPath>
</defs>
<g id="surface1">
<g clip-path="url(#clip1)" clip-rule="nonzero">
<path style=" stroke:none;fill-rule:nonzero;fill:rgb(0%,0%,0%);fill-opacity:1;" d="M 76.765625 57.003906 C 84.28125 57.003906 90.382812 63.101562 90.382812 70.617188 C 90.382812 78.136719 84.28125 84.234375 76.765625 84.234375 C 69.25 84.234375 63.148438 78.136719 63.148438 70.617188 C 63.148438 63.101562 69.25 57.003906 76.765625 57.003906 Z M 203.851562 116.007812 C 206.351562 116.007812 208.390625 118.046875 208.390625 120.542969 L 208.390625 215.859375 L 90.382812 215.859375 L 90.382812 134.160156 L 140.308594 134.160156 L 140.308594 125.082031 L 90.382812 125.082031 L 90.382812 116.007812 Z M 217.464844 220.398438 L 217.464844 134.160156 L 314.515625 134.160156 L 290.566406 182.046875 C 289.925781 183.34375 289.925781 184.832031 290.566406 186.125 L 305.441406 215.859375 L 262.855469 215.859375 L 262.855469 224.9375 L 309.976562 224.9375 L 314.515625 234.011719 L 194.773438 234.011719 C 192.273438 234.011719 190.234375 231.972656 190.234375 229.472656 L 190.234375 224.9375 L 212.925781 224.9375 C 215.425781 224.9375 217.464844 222.898438 217.464844 220.398438 Z M 81.304688 311.171875 L 72.226562 311.171875 L 72.226562 92.851562 C 73.699219 93.152344 75.207031 93.3125 76.765625 93.3125 C 78.324219 93.3125 79.832031 93.152344 81.304688 92.851562 Z M 63.148438 88.648438 L 63.148438 320.25 L 90.382812 320.25 L 90.382812 224.9375 L 181.15625 224.9375 L 181.15625 229.472656 C 181.15625 236.992188 187.253906 243.089844 194.773438 243.089844 L 321.855469 243.089844 C 323.433594 243.089844 324.890625 242.273438 325.722656 240.945312 C 326.539062 239.597656 326.625 237.929688 325.917969 236.511719 L 299.695312 184.085938 L 325.917969 131.660156 C 326.625 130.242188 326.539062 128.578125 325.722656 127.230469 C 324.890625 125.898438 323.433594 125.082031 321.855469 125.082031 L 217.464844 125.082031 L 217.464844 120.542969 C 217.464844 113.027344 211.367188 106.929688 203.851562 106.929688 L 90.382812 106.929688 L 90.382812 88.648438 C 95.859375 84.5 99.460938 78.011719 99.460938 70.617188 C 99.460938 58.101562 89.28125 47.925781 76.765625 47.925781 C 64.25 47.925781 54.070312 58.101562 54.070312 70.617188 C 54.070312 78.011719 57.671875 84.5 63.148438 88.648438 "/>
</g>
<path style=" stroke:none;fill-rule:nonzero;fill:rgb(0%,0%,0%);fill-opacity:1;" d="M 253.777344 215.859375 L 244.699219 215.859375 L 244.699219 224.9375 L 253.777344 224.9375 L 253.777344 215.859375 "/>
</g>
</svg>
