<?xml version="1.0" encoding="UTF-8"?>
<svg xmlns="http://www.w3.org/2000/svg" xmlns:xlink="http://www.w3.org/1999/xlink" width="375pt" height="374.999991pt" viewBox="0 0 375 374.999991" version="1.2">
<defs>
<clipPath id="clip1">
  <path d="M 46.390625 96 L 253 96 L 253 302.113281 L 46.390625 302.113281 Z M 46.390625 96 "/>
</clipPath>
<clipPath id="clip2">
  <path d="M 185 65.863281 L 337.285156 65.863281 L 337.285156 219 L 185 219 Z M 185 65.863281 "/>
</clipPath>
</defs>
<g id="surface1">
<path style=" stroke:none;fill-rule:nonzero;fill:rgb(78.039551%,78.039551%,77.648926%);fill-opacity:1;" d="M 149.296875 154.605469 C 149.285156 154.605469 149.285156 154.605469 149.296875 154.605469 C 136.996094 154.605469 125.816406 159.613281 117.757812 167.691406 C 109.703125 175.753906 104.691406 186.972656 104.703125 199.289062 C 104.703125 211.617188 109.703125 222.820312 117.757812 230.886719 C 125.804688 238.960938 136.984375 243.972656 149.273438 243.972656 C 149.273438 243.972656 149.285156 243.972656 149.285156 243.972656 C 161.582031 243.972656 172.761719 238.960938 180.808594 230.886719 C 188.867188 222.820312 193.875 211.605469 193.863281 199.289062 L 182.902344 199.289062 C 182.902344 208.617188 179.144531 217 173.058594 223.117188 C 166.953125 229.226562 158.589844 232.984375 149.285156 232.984375 C 139.976562 232.984375 131.613281 229.214844 125.507812 223.117188 C 119.414062 217 115.664062 208.605469 115.664062 199.289062 C 115.664062 189.960938 119.425781 181.578125 125.507812 175.457031 C 131.613281 169.347656 139.988281 165.589844 149.285156 165.589844 C 158.589844 165.589844 166.953125 169.347656 173.058594 175.457031 C 179.152344 181.578125 182.902344 189.960938 182.902344 199.289062 L 193.863281 199.289062 C 193.863281 186.960938 188.867188 175.753906 180.808594 167.691406 C 172.761719 159.613281 161.582031 154.605469 149.296875 154.605469 "/>
<g clip-path="url(#clip1)" clip-rule="nonzero">
<path style=" stroke:none;fill-rule:nonzero;fill:rgb(77.648926%,77.648926%,77.648926%);fill-opacity:1;" d="M 193.777344 125.589844 C 186.433594 121.128906 178.375 117.753906 169.824219 115.65625 L 168.519531 120.996094 L 174.003906 120.996094 L 174.003906 111.171875 C 174.003906 107.085938 172.335938 103.339844 169.660156 100.660156 C 166.996094 97.976562 163.25 96.296875 159.171875 96.308594 L 139.40625 96.308594 C 135.328125 96.308594 131.59375 97.976562 128.917969 100.660156 C 126.242188 103.328125 124.566406 107.085938 124.578125 111.171875 L 124.578125 120.996094 L 130.058594 120.996094 L 128.753906 115.65625 C 120.203125 117.753906 112.136719 121.128906 104.800781 125.589844 L 107.640625 130.289062 L 111.523438 126.402344 L 104.59375 119.46875 C 103.15625 118.03125 101.46875 116.929688 99.683594 116.207031 C 97.894531 115.480469 96 115.117188 94.105469 115.117188 C 92.207031 115.117188 90.3125 115.480469 88.523438 116.207031 C 86.738281 116.929688 85.050781 118.03125 83.613281 119.46875 L 69.636719 133.476562 C 68.203125 134.917969 67.105469 136.609375 66.382812 138.398438 C 65.660156 140.191406 65.296875 142.089844 65.296875 143.992188 C 65.296875 145.890625 65.660156 147.792969 66.382812 149.582031 C 67.105469 151.375 68.203125 153.066406 69.636719 154.503906 L 76.566406 161.449219 L 80.433594 157.558594 L 75.742188 154.714844 C 71.292969 162.074219 67.925781 170.152344 65.835938 178.722656 L 71.160156 180.027344 L 71.160156 174.535156 L 61.363281 174.535156 C 57.285156 174.535156 53.546875 176.203125 50.871094 178.886719 C 48.195312 181.554688 46.519531 185.3125 46.53125 189.398438 L 46.53125 209.210938 C 46.53125 213.296875 48.195312 217.042969 50.871094 219.722656 C 53.535156 222.40625 57.285156 224.085938 61.363281 224.074219 L 71.160156 224.074219 L 71.160156 218.582031 L 65.835938 219.890625 C 67.925781 228.457031 71.292969 236.542969 75.742188 243.894531 L 80.433594 241.050781 L 76.566406 237.160156 L 69.636719 244.105469 C 68.203125 245.542969 67.105469 247.234375 66.382812 249.027344 C 65.660156 250.816406 65.296875 252.71875 65.296875 254.617188 C 65.296875 256.519531 65.660156 258.417969 66.382812 260.210938 C 67.105469 262 68.203125 263.695312 69.636719 265.132812 L 83.613281 279.140625 C 85.050781 280.582031 86.738281 281.679688 88.523438 282.402344 C 90.3125 283.128906 92.207031 283.492188 94.105469 283.492188 C 96 283.492188 97.894531 283.128906 99.683594 282.402344 C 101.46875 281.679688 103.15625 280.582031 104.59375 279.140625 L 111.523438 272.199219 L 107.640625 268.320312 L 104.800781 273.011719 C 112.144531 277.472656 120.203125 280.84375 128.753906 282.941406 L 130.058594 277.601562 L 124.578125 277.601562 L 124.578125 287.425781 C 124.578125 291.511719 126.242188 295.257812 128.917969 297.941406 C 131.582031 300.621094 135.328125 302.300781 139.40625 302.289062 L 159.171875 302.289062 C 163.25 302.289062 166.988281 300.621094 169.660156 297.941406 C 172.335938 295.269531 174.011719 291.511719 174.003906 287.425781 L 174.003906 277.601562 L 168.519531 277.601562 L 169.824219 282.941406 C 178.375 280.84375 186.433594 277.472656 193.777344 273.011719 L 190.9375 268.320312 L 187.066406 272.199219 L 193.984375 279.140625 C 195.421875 280.582031 197.109375 281.679688 198.894531 282.402344 C 200.683594 283.128906 202.578125 283.492188 204.476562 283.492188 C 206.371094 283.492188 208.269531 283.128906 210.054688 282.402344 C 211.839844 281.679688 213.53125 280.582031 214.964844 279.140625 L 228.941406 265.132812 C 230.378906 263.695312 231.472656 262 232.195312 260.210938 C 232.921875 258.417969 233.28125 256.519531 233.28125 254.617188 C 233.28125 252.71875 232.921875 250.816406 232.195312 249.027344 C 231.472656 247.234375 230.378906 245.542969 228.941406 244.105469 L 222.011719 237.160156 L 218.144531 241.050781 L 222.835938 243.894531 C 227.285156 236.535156 230.652344 228.457031 232.746094 219.890625 L 227.417969 218.582031 L 227.417969 224.074219 L 237.21875 224.074219 C 241.292969 224.074219 245.042969 222.40625 247.707031 219.722656 C 250.382812 217.054688 252.058594 213.296875 252.046875 209.210938 C 252.046875 206.175781 249.59375 203.714844 246.566406 203.714844 C 243.542969 203.714844 241.085938 206.175781 241.085938 209.210938 C 241.085938 210.296875 240.660156 211.230469 239.957031 211.957031 C 239.246094 212.671875 238.300781 213.085938 237.21875 213.097656 L 223.121094 213.097656 L 222.101562 217.285156 C 220.269531 224.765625 217.332031 231.808594 213.464844 238.214844 L 211.238281 241.894531 L 221.203125 251.882812 C 221.585938 252.277344 221.859375 252.695312 222.058594 253.15625 C 222.242188 253.617188 222.34375 254.125 222.34375 254.617188 C 222.34375 255.113281 222.242188 255.617188 222.058594 256.078125 C 221.871094 256.539062 221.597656 256.96875 221.203125 257.355469 L 207.226562 271.363281 C 206.84375 271.757812 206.414062 272.019531 205.953125 272.21875 C 205.496094 272.40625 204.992188 272.503906 204.496094 272.503906 C 203.992188 272.503906 203.5 272.40625 203.039062 272.21875 C 202.578125 272.03125 202.152344 271.757812 201.757812 271.363281 L 191.792969 261.375 L 188.121094 263.605469 C 181.730469 267.496094 174.703125 270.429688 167.238281 272.261719 L 163.0625 273.285156 L 163.0625 287.414062 C 163.0625 288.5 162.636719 289.4375 161.933594 290.160156 C 161.222656 290.875 160.277344 291.292969 159.191406 291.304688 L 139.429688 291.304688 C 138.34375 291.304688 137.414062 290.875 136.6875 290.160156 C 135.976562 289.445312 135.558594 288.511719 135.550781 287.414062 L 135.550781 273.285156 L 131.371094 272.261719 C 123.90625 270.429688 116.882812 267.484375 110.492188 263.605469 L 106.820312 261.375 L 96.855469 271.363281 C 96.460938 271.757812 96.042969 272.019531 95.582031 272.21875 C 95.125 272.40625 94.617188 272.503906 94.125 272.503906 C 93.621094 272.503906 93.128906 272.40625 92.667969 272.21875 C 92.207031 272.03125 91.78125 271.757812 91.386719 271.363281 L 77.410156 257.355469 C 77.027344 256.957031 76.75 256.539062 76.554688 256.078125 C 76.367188 255.617188 76.269531 255.113281 76.269531 254.617188 C 76.269531 254.125 76.367188 253.617188 76.554688 253.15625 C 76.742188 252.695312 77.015625 252.265625 77.410156 251.882812 L 87.375 241.894531 L 85.148438 238.214844 C 81.269531 231.808594 78.339844 224.765625 76.511719 217.285156 L 75.480469 213.097656 L 61.363281 213.097656 C 60.277344 213.097656 59.34375 212.671875 58.621094 211.957031 C 57.910156 211.242188 57.492188 210.308594 57.480469 209.210938 L 57.480469 189.398438 C 57.480469 188.3125 57.910156 187.378906 58.621094 186.652344 C 59.332031 185.9375 60.265625 185.523438 61.363281 185.523438 L 75.457031 185.523438 L 76.488281 181.335938 C 78.320312 173.855469 81.257812 166.8125 85.125 160.40625 L 87.351562 156.726562 L 77.386719 146.738281 C 77.003906 146.34375 76.730469 145.925781 76.53125 145.453125 C 76.347656 144.992188 76.246094 144.496094 76.246094 143.992188 C 76.246094 143.484375 76.347656 142.992188 76.53125 142.53125 C 76.71875 142.070312 76.992188 141.640625 77.386719 141.253906 L 91.363281 127.246094 C 91.757812 126.863281 92.175781 126.589844 92.636719 126.390625 C 93.09375 126.203125 93.597656 126.105469 94.09375 126.105469 C 94.597656 126.105469 95.089844 126.203125 95.550781 126.390625 C 96.011719 126.578125 96.4375 126.851562 96.832031 127.246094 L 106.796875 137.234375 L 110.46875 135.003906 C 116.859375 131.125 123.886719 128.179688 131.351562 126.347656 L 135.527344 125.324219 L 135.527344 111.195312 C 135.527344 110.109375 135.953125 109.175781 136.667969 108.449219 C 137.378906 107.734375 138.3125 107.316406 139.40625 107.316406 L 159.171875 107.316406 C 160.257812 107.316406 161.1875 107.746094 161.910156 108.449219 C 162.625 109.164062 163.039062 110.109375 163.039062 111.195312 L 163.039062 125.324219 L 167.21875 126.347656 C 174.683594 128.179688 181.707031 131.125 188.097656 135.003906 C 190.6875 136.574219 194.0625 135.75 195.628906 133.160156 C 197.1875 130.542969 196.363281 127.160156 193.777344 125.589844 "/>
</g>
<path style=" stroke:none;fill-rule:nonzero;fill:rgb(37.649536%,76.469421%,84.709167%);fill-opacity:1;" d="M 261.082031 108.183594 C 261.082031 108.183594 261.070312 108.183594 261.070312 108.183594 C 251.742188 108.183594 243.234375 111.996094 237.128906 118.128906 C 231.011719 124.246094 227.210938 132.773438 227.210938 142.125 C 227.210938 151.472656 231.011719 160 237.128906 166.117188 C 243.234375 172.25 251.730469 176.0625 261.058594 176.0625 C 261.058594 176.0625 261.058594 176.0625 261.070312 176.0625 C 270.398438 176.0625 278.902344 172.25 285.007812 166.117188 C 291.125 160 294.929688 151.472656 294.929688 142.125 L 283.96875 142.125 C 283.96875 148.472656 281.414062 154.1875 277.257812 158.351562 C 273.09375 162.515625 267.40625 165.074219 261.070312 165.074219 C 254.734375 165.074219 249.035156 162.515625 244.878906 158.351562 C 240.726562 154.175781 238.171875 148.472656 238.171875 142.125 C 238.171875 135.773438 240.726562 130.058594 244.878906 125.894531 C 249.042969 121.730469 254.734375 119.171875 261.070312 119.171875 C 267.40625 119.171875 273.105469 121.730469 277.257812 125.894531 C 281.414062 130.070312 283.957031 135.773438 283.96875 142.125 L 294.929688 142.125 C 294.929688 132.773438 291.125 124.246094 285.007812 118.128906 C 278.902344 111.996094 270.410156 108.183594 261.082031 108.183594 "/>
<g clip-path="url(#clip2)" clip-rule="nonzero">
<path style=" stroke:none;fill-rule:nonzero;fill:rgb(37.649536%,76.469421%,84.709167%);fill-opacity:1;" d="M 230.015625 98.976562 L 233.6875 96.746094 C 238.191406 94.011719 243.148438 91.933594 248.417969 90.640625 L 252.597656 89.617188 L 252.597656 78.167969 C 252.597656 77.796875 252.726562 77.5 252.980469 77.246094 C 253.230469 77.003906 253.527344 76.863281 253.902344 76.863281 L 268.238281 76.863281 C 268.621094 76.863281 268.90625 77.003906 269.160156 77.246094 C 269.398438 77.5 269.542969 77.796875 269.542969 78.167969 L 269.542969 89.605469 L 273.71875 90.628906 C 278.992188 91.925781 283.945312 94 288.453125 96.738281 L 292.125 98.96875 L 300.191406 90.878906 C 300.332031 90.75 300.464844 90.660156 300.617188 90.59375 C 300.773438 90.527344 300.9375 90.496094 301.113281 90.496094 C 301.277344 90.496094 301.453125 90.527344 301.605469 90.59375 C 301.757812 90.660156 301.890625 90.75 302.03125 90.878906 L 312.171875 101.042969 C 312.304688 101.1875 312.390625 101.316406 312.457031 101.472656 C 312.523438 101.625 312.554688 101.789062 312.554688 101.964844 C 312.554688 102.140625 312.523438 102.308594 312.457031 102.460938 C 312.390625 102.613281 312.304688 102.746094 312.171875 102.890625 L 304.105469 110.976562 L 306.328125 114.65625 C 309.058594 119.171875 311.128906 124.136719 312.425781 129.421875 L 313.445312 133.609375 L 324.855469 133.609375 C 325.226562 133.609375 325.523438 133.75 325.773438 133.992188 C 326.015625 134.246094 326.160156 134.542969 326.160156 134.917969 L 326.160156 149.285156 C 326.160156 149.671875 326.015625 149.957031 325.773438 150.210938 C 325.523438 150.453125 325.226562 150.59375 324.855469 150.59375 L 313.445312 150.59375 L 312.425781 154.78125 C 311.128906 160.066406 309.058594 165.03125 306.328125 169.546875 L 304.105469 173.226562 L 312.171875 181.3125 C 312.304688 181.457031 312.390625 181.589844 312.457031 181.742188 C 312.523438 181.894531 312.554688 182.0625 312.554688 182.238281 C 312.554688 182.414062 312.523438 182.578125 312.457031 182.730469 C 312.390625 182.886719 312.304688 183.015625 312.171875 183.160156 L 302.03125 193.324219 C 301.890625 193.464844 301.757812 193.554688 301.605469 193.609375 C 301.453125 193.675781 301.289062 193.707031 301.113281 193.707031 C 300.9375 193.707031 300.773438 193.675781 300.617188 193.609375 C 300.464844 193.542969 300.332031 193.453125 300.191406 193.324219 L 292.125 185.234375 L 288.453125 187.464844 C 283.945312 190.203125 278.992188 192.277344 273.71875 193.574219 L 269.542969 194.609375 L 269.542969 206.046875 C 269.542969 206.429688 269.398438 206.714844 269.160156 206.96875 C 268.90625 207.210938 268.609375 207.351562 268.238281 207.351562 L 253.902344 207.351562 C 253.527344 207.351562 253.230469 207.222656 252.980469 206.96875 C 252.738281 206.714844 252.597656 206.417969 252.597656 206.046875 L 252.597656 194.609375 L 248.417969 193.574219 C 243.148438 192.277344 238.191406 190.203125 233.6875 187.464844 L 230.015625 185.234375 L 221.949219 193.324219 C 221.804688 193.464844 221.671875 193.554688 221.519531 193.609375 C 221.367188 193.675781 221.203125 193.707031 221.027344 193.707031 C 220.851562 193.707031 220.6875 193.675781 220.535156 193.609375 C 220.378906 193.542969 220.25 193.453125 220.105469 193.324219 L 209.96875 183.160156 C 209.824219 183.015625 209.738281 182.886719 209.683594 182.730469 C 209.617188 182.578125 209.582031 182.414062 209.582031 182.238281 C 209.582031 182.0625 209.617188 181.894531 209.683594 181.742188 C 209.746094 181.589844 209.835938 181.457031 209.96875 181.3125 L 218.035156 173.226562 L 215.808594 169.546875 C 213.078125 165.03125 211.007812 160.066406 209.714844 154.78125 L 208.683594 150.59375 L 197.273438 150.59375 C 196.902344 150.59375 196.605469 150.453125 196.351562 150.210938 C 196.113281 149.957031 195.96875 149.660156 195.96875 149.285156 L 195.96875 134.917969 C 195.96875 134.53125 196.101562 134.246094 196.351562 133.992188 C 196.605469 133.75 196.902344 133.609375 197.273438 133.609375 L 208.683594 133.609375 L 209.714844 129.421875 C 211.007812 124.136719 213.078125 119.171875 215.808594 114.65625 L 218.035156 110.976562 L 209.96875 102.890625 C 209.824219 102.746094 209.738281 102.613281 209.683594 102.460938 C 209.617188 102.308594 209.582031 102.140625 209.582031 101.964844 C 209.582031 101.789062 209.617188 101.625 209.683594 101.472656 C 209.746094 101.316406 209.835938 101.1875 209.96875 101.042969 L 220.105469 90.878906 C 220.25 90.75 220.378906 90.660156 220.535156 90.59375 C 220.6875 90.527344 220.851562 90.496094 221.027344 90.496094 C 221.203125 90.496094 221.367188 90.527344 221.519531 90.59375 C 221.671875 90.660156 221.804688 90.75 221.949219 90.878906 L 230.015625 98.976562 M 268.261719 65.875 C 268.261719 65.875 268.25 65.875 268.25 65.875 L 253.910156 65.875 C 253.910156 65.875 253.902344 65.875 253.902344 65.875 C 250.535156 65.875 247.445312 67.257812 245.242188 69.476562 C 243.027344 71.6875 241.644531 74.796875 241.644531 78.167969 L 241.644531 81.144531 C 238.238281 82.234375 234.949219 83.609375 231.800781 85.222656 L 229.707031 83.125 C 228.523438 81.9375 227.132812 81.027344 225.652344 80.421875 C 224.171875 79.816406 222.605469 79.519531 221.039062 79.519531 C 219.46875 79.519531 217.902344 79.816406 216.421875 80.421875 C 214.945312 81.027344 213.550781 81.925781 212.367188 83.125 L 202.226562 93.285156 C 201.042969 94.472656 200.132812 95.867188 199.53125 97.351562 C 198.929688 98.835938 198.632812 100.40625 198.632812 101.976562 C 198.632812 103.546875 198.929688 105.121094 199.53125 106.601562 C 200.132812 108.085938 201.042969 109.480469 202.226562 110.667969 L 204.320312 112.765625 C 202.699219 115.910156 201.339844 119.214844 200.253906 122.632812 L 197.296875 122.632812 C 197.296875 122.632812 197.285156 122.632812 197.285156 122.632812 C 195.15625 122.632812 193.128906 123.191406 191.375 124.160156 C 192.199219 124.621094 193.007812 125.09375 193.808594 125.578125 C 196.398438 127.148438 197.230469 130.53125 195.652344 133.125 C 194.621094 134.828125 192.8125 135.773438 190.960938 135.773438 C 189.996094 135.773438 189.007812 135.519531 188.121094 134.972656 C 187.144531 134.378906 186.148438 133.804688 185.140625 133.257812 C 185.0625 133.804688 185.03125 134.367188 185.03125 134.925781 L 185.03125 149.296875 C 185.03125 152.671875 186.410156 155.78125 188.625 157.988281 C 190.828125 160.207031 193.917969 161.59375 197.296875 161.59375 C 197.296875 161.59375 197.296875 161.59375 197.304688 161.59375 L 200.265625 161.59375 C 201.351562 165.007812 202.722656 168.304688 204.332031 171.457031 L 202.238281 173.558594 C 201.054688 174.742188 200.144531 176.140625 199.542969 177.621094 C 198.941406 179.105469 198.644531 180.675781 198.644531 182.246094 C 198.644531 183.820312 198.941406 185.390625 199.542969 186.875 C 200.144531 188.355469 201.054688 189.75 202.238281 190.9375 L 212.378906 201.101562 C 213.5625 202.289062 214.953125 203.199219 216.433594 203.804688 C 217.914062 204.40625 219.480469 204.703125 221.050781 204.703125 C 222.617188 204.703125 224.183594 204.40625 225.664062 203.804688 C 227.144531 203.199219 228.535156 202.289062 229.71875 201.101562 L 231.8125 199.003906 C 234.949219 200.628906 238.238281 201.992188 241.65625 203.078125 L 241.65625 206.046875 C 241.65625 206.277344 241.667969 206.496094 241.679688 206.714844 C 242.578125 204.914062 244.441406 203.671875 246.589844 203.671875 C 249.613281 203.671875 252.070312 206.132812 252.070312 209.164062 C 252.070312 212.242188 251.128906 215.132812 249.515625 217.515625 C 250.886719 218.042969 252.375 218.339844 253.921875 218.339844 C 253.921875 218.339844 253.921875 218.339844 253.933594 218.339844 L 268.269531 218.339844 C 268.269531 218.339844 268.28125 218.339844 268.28125 218.339844 C 271.648438 218.339844 274.738281 216.957031 276.941406 214.734375 C 279.15625 212.527344 280.535156 209.417969 280.535156 206.046875 L 280.535156 203.078125 C 283.945312 201.992188 287.246094 200.617188 290.378906 199.003906 L 292.472656 201.101562 C 293.65625 202.289062 295.050781 203.199219 296.53125 203.804688 C 298.007812 204.40625 299.578125 204.703125 301.144531 204.703125 C 302.710938 204.703125 304.28125 204.40625 305.757812 203.804688 C 307.238281 203.199219 308.632812 202.289062 309.816406 201.101562 L 319.953125 190.9375 C 321.136719 189.75 322.046875 188.355469 322.652344 186.875 C 323.253906 185.390625 323.550781 183.820312 323.550781 182.246094 C 323.550781 180.675781 323.253906 179.105469 322.652344 177.621094 C 322.046875 176.140625 321.148438 174.742188 319.953125 173.558594 L 317.859375 171.457031 C 319.484375 168.316406 320.84375 165.019531 321.925781 161.59375 L 324.898438 161.59375 C 328.261719 161.59375 331.367188 160.207031 333.570312 157.988281 C 335.78125 155.78125 337.164062 152.671875 337.164062 149.296875 L 337.164062 134.925781 C 337.164062 131.554688 335.78125 128.445312 333.570312 126.238281 C 331.367188 124.027344 328.273438 122.632812 324.910156 122.632812 C 324.910156 122.632812 324.898438 122.632812 324.898438 122.632812 L 321.925781 122.632812 C 320.84375 119.214844 319.472656 115.910156 317.859375 112.765625 L 319.953125 110.667969 C 321.136719 109.480469 322.046875 108.085938 322.652344 106.601562 C 323.253906 105.121094 323.550781 103.546875 323.550781 101.976562 C 323.550781 100.40625 323.253906 98.835938 322.652344 97.351562 C 322.046875 95.867188 321.136719 94.472656 319.953125 93.285156 L 309.816406 83.125 C 308.632812 81.9375 307.238281 81.027344 305.757812 80.421875 C 304.28125 79.816406 302.710938 79.519531 301.144531 79.519531 C 299.578125 79.519531 298.007812 79.816406 296.53125 80.421875 C 295.050781 81.027344 293.65625 81.925781 292.472656 83.125 L 290.378906 85.222656 C 287.246094 83.597656 283.945312 82.234375 280.535156 81.144531 L 280.535156 78.179688 C 280.535156 74.808594 279.15625 71.699219 276.941406 69.488281 C 274.714844 67.269531 271.625 65.875 268.261719 65.875 "/>
</g>
<path style=" stroke:none;fill-rule:nonzero;fill:rgb(29.798889%,59.609985%,65.879822%);fill-opacity:1;" d="M 246.554688 203.703125 C 244.40625 203.703125 242.542969 204.945312 241.644531 206.75 C 241.808594 209.867188 243.160156 212.714844 245.21875 214.769531 C 246.402344 215.964844 247.859375 216.921875 249.472656 217.546875 C 251.082031 215.164062 252.035156 212.273438 252.027344 209.199219 C 252.035156 206.167969 249.582031 203.703125 246.554688 203.703125 M 191.34375 124.171875 C 190.324219 124.730469 189.402344 125.433594 188.59375 126.246094 C 186.75 128.082031 185.480469 130.554688 185.117188 133.269531 C 186.125 133.816406 187.125 134.390625 188.097656 134.980469 C 188.988281 135.519531 189.960938 135.785156 190.9375 135.785156 C 192.789062 135.785156 194.597656 134.839844 195.628906 133.136719 C 197.195312 130.542969 196.375 127.160156 193.789062 125.589844 C 192.976562 125.105469 192.164062 124.632812 191.34375 124.171875 "/>
</g>
</svg>
